<svg version="1.1" viewBox="0.0 0.0 1024.0 768.0" fill="none" stroke="none" stroke-linecap="square" stroke-miterlimit="10" xmlns:xlink="http://www.w3.org/1999/xlink" xmlns="http://www.w3.org/2000/svg"><clipPath id="p.0"><path d="m0 0l1024.0 0l0 768.0l-1024.0 0l0 -768.0z" clip-rule="nonzero"/></clipPath><g clip-path="url(#p.0)"><path fill="#000000" fill-opacity="0.0" d="m0 0l1024.0 0l0 768.0l-1024.0 0z" fill-rule="evenodd"/><path fill="#000000" fill-opacity="0.0" d="m75.47244 384.0l0 0c0 -66.79602 55.051346 -120.944885 122.96063 -120.944885l0 0c32.611176 0 63.88669 12.742371 86.94629 35.42395c23.0596 22.68155 36.014343 53.444366 36.014343 85.520935l0 0c0 66.79602 -55.05136 120.944885 -122.96063 120.944885l0 0c-67.90929 0 -122.96063 -54.148865 -122.96063 -120.944885z" fill-rule="evenodd"/><path stroke="#434343" stroke-width="16.0" stroke-linejoin="round" stroke-linecap="butt" d="m75.47244 384.0l0 0c0 -66.79602 55.051346 -120.944885 122.96063 -120.944885l0 0c32.611176 0 63.88669 12.742371 86.94629 35.42395c23.0596 22.68155 36.014343 53.444366 36.014343 85.520935l0 0c0 66.79602 -55.05136 120.944885 -122.96063 120.944885l0 0c-67.90929 0 -122.96063 -54.148865 -122.96063 -120.944885z" fill-rule="evenodd"/><path fill="#000000" fill-opacity="0.0" d="m240.0034 280.86658c-9.997299 -7.187195 -139.18283 168.74347 -131.21597 174.36853c7.9668503 5.6250916 169.01979 -147.80524 179.01707 -140.61804c9.997284 7.187195 -111.06645 189.36627 -119.033295 183.74121c-7.966858 -5.6250916 81.22948 -210.3045 71.23219 -217.4917z" fill-rule="evenodd"/><path stroke="#434343" stroke-width="16.0" stroke-linejoin="round" stroke-linecap="butt" d="m240.0034 280.86658c-9.997299 -7.187195 -139.18283 168.74347 -131.21597 174.36853c7.9668503 5.6250916 169.01979 -147.80524 179.01707 -140.61804c9.997284 7.187195 -111.06645 189.36627 -119.033295 183.74121c-7.966858 -5.6250916 81.22948 -210.3045 71.23219 -217.4917z" fill-rule="evenodd"/><path fill="#000000" fill-opacity="0.0" d="m344.43307 323.31104l604.0945 0l0 132.50394l-604.0945 0z" fill-rule="evenodd"/><path fill="#424242" d="m407.33212 422.94226q-11.109375 0 -18.8125 -4.203125q-7.703125 -4.203125 -11.71875 -11.75q-4.0 -7.5625 -4.0 -17.75q0 -7.828125 2.375 -14.125q2.375 -6.3125 6.90625 -10.734375q4.53125 -4.4375 11.015625 -6.859375q6.484375 -2.4375 14.703125 -2.4375q5.03125 0 10.0625 1.125q5.046875 1.125 9.71875 3.734375q1.953125 1.125 2.65625 2.859375q0.703125 1.71875 0.375 3.625q-0.328125 1.90625 -1.5 3.359375q-1.15625 1.453125 -2.984375 1.875q-1.8125 0.40625 -4.15625 -0.703125q-3.078125 -1.6875 -6.53125 -2.46875q-3.453125 -0.796875 -7.546875 -0.796875q-6.640625 0 -11.125 2.46875q-4.46875 2.46875 -6.671875 7.28125q-2.1875 4.796875 -2.1875 11.796875q0 10.546875 5.078125 15.96875q5.09375 5.40625 15.078125 5.40625q3.359375 0 6.90625 -0.640625q3.546875 -0.65625 7.0 -1.875l-2.703125 5.875l0 -17.921875l-8.390625 0q-2.8125 0 -4.3125 -1.390625q-1.484375 -1.40625 -1.484375 -3.828125q0 -2.515625 1.484375 -3.859375q1.5 -1.359375 4.3125 -1.359375l14.640625 0q2.8125 0 4.25 1.5q1.453125 1.484375 1.453125 4.28125l0 21.65625q0 2.421875 -0.9375 4.109375q-0.9375 1.671875 -3.171875 2.421875q-4.203125 1.484375 -9.4375 2.421875q-5.21875 0.9375 -10.34375 0.9375zm44.046417 -1.03125q-3.546875 0 -5.46875 -1.953125q-1.90625 -1.96875 -1.90625 -5.421875l0 -51.234375q0 -3.640625 1.859375 -5.5q1.875 -1.875 5.421875 -1.875q3.453125 0 5.3125 1.875q1.875 1.859375 1.875 5.5l0 46.390625l25.015625 0q2.984375 0 4.609375 1.59375q1.640625 1.578125 1.640625 4.46875q0 2.984375 -1.640625 4.578125q-1.625 1.578125 -4.609375 1.578125l-32.109375 0zm72.97772 1.03125q-9.703125 0 -17.03128 -4.25q-7.328125 -4.25 -11.390625 -11.890625q-4.046875 -7.65625 -4.046875 -17.828125q0 -7.75 2.28125 -13.953125q2.28125 -6.21875 6.578125 -10.640625q4.296875 -4.4375 10.3125 -6.859375q6.0156555 -2.4375 13.2969055 -2.4375q9.890625 0 17.171875 4.203125q7.28125 4.203125 11.34375 11.8125q4.0625 7.59375 4.0625 17.78125q0 7.734375 -2.34375 14.0q-2.328125 6.25 -6.625 10.734375q-4.28125 4.46875 -10.265625 6.90625q-5.96875 2.421875 -13.34375 2.421875zm0 -12.328125q5.515625 0 9.375 -2.5625q3.875 -2.5625 5.96875 -7.453125q2.109375 -4.90625 2.109375 -11.625q0 -10.28125 -4.578125 -15.921875q-4.5625 -5.640625 -12.875 -5.640625q-5.40625 0 -9.328125 2.515625q-3.9219055 2.515625 -5.9844055 7.375q-2.046875 4.84375 -2.046875 11.671875q0 10.171875 4.578125 15.90625q4.5781555 5.734375 12.7812805 5.734375zm51.33612 11.296875q-3.640625 0 -5.609375 -1.953125q-1.953125 -1.96875 -1.953125 -5.609375l0 -50.671875q0 -3.640625 1.953125 -5.59375q1.96875 -1.96875 5.609375 -1.96875l22.578125 0q7.0 0 11.9375 2.0625q4.953125 2.046875 7.515625 5.875q2.578125 3.828125 2.578125 9.140625q0 5.875 -3.359375 9.984375q-3.359375 4.109375 -9.234375 5.515625l0 -1.5q6.8125 1.21875 10.578125 5.375q3.78125 4.140625 3.78125 10.765625q0 8.78125 -6.0625 13.6875q-6.0625 4.890625 -16.703125 4.890625l-23.609375 0zm6.25 -10.734375l15.40625 0q5.59375 0 8.203125 -2.1875q2.625 -2.203125 2.625 -6.484375q0 -4.296875 -2.625 -6.4375q-2.609375 -2.15625 -8.203125 -2.15625l-15.40625 0l0 17.265625zm0 -28.0l13.8125 0q5.421875 0 8.03125 -2.046875q2.609375 -2.0625 2.609375 -6.15625q0 -4.015625 -2.609375 -6.0625q-2.609375 -2.0625 -8.03125 -2.0625l-13.8125 0l0 16.328125zm52.64563 39.578125q-2.625 0 -4.265625 -1.21875q-1.625 -1.21875 -2.046875 -3.265625q-0.421875 -2.046875 0.796875 -4.578125l23.890625 -52.34375q1.5 -3.1875 3.546875 -4.625q2.0625 -1.453125 4.765625 -1.453125q2.703125 0 4.75 1.453125q2.0625 1.4375 3.453125 4.625l24.078125 52.34375q1.21875 2.53125 0.890625 4.625q-0.328125 2.09375 -1.921875 3.265625q-1.578125 1.171875 -4.09375 1.171875q-3.171875 0 -4.90625 -1.484375q-1.71875 -1.5 -3.03125 -4.671875l-5.59375 -12.984375l5.78125 4.015625l-38.921875 0l5.796875 -4.015625l-5.515625 12.984375q-1.390625 3.265625 -2.9375 4.71875q-1.53125 1.4375 -4.515625 1.4375zm26.5 -51.234375l-11.953125 28.453125l-2.515625 -3.640625l29.21875 0l-2.53125 3.640625l-12.03125 -28.453125l-0.1875 0zm49.276123 50.390625q-3.546875 0 -5.46875 -1.953125q-1.90625 -1.96875 -1.90625 -5.421875l0 -51.234375q0 -3.640625 1.859375 -5.5q1.875 -1.875 5.421875 -1.875q3.453125 0 5.3125 1.875q1.875 1.859375 1.875 5.5l0 46.390625l25.015625 0q2.984375 0 4.609375 1.59375q1.640625 1.578125 1.640625 4.46875q0 2.984375 -1.640625 4.578125q-1.625 1.578125 -4.609375 1.578125l-32.109375 0z" fill-rule="nonzero"/><path fill="#424242" d="m789.8798 421.911q-3.546875 0 -5.46875 -1.953125q-1.90625 -1.96875 -1.90625 -5.421875l0 -51.234375q0 -3.640625 1.859375 -5.5q1.875 -1.875 5.421875 -1.875q3.453125 0 5.3125 1.875q1.875 1.859375 1.875 5.5l0 46.390625l25.015625 0q2.984375 0 4.609375 1.59375q1.640625 1.578125 1.640625 4.46875q0 2.984375 -1.640625 4.578125q-1.625 1.578125 -4.609375 1.578125l-32.109375 0zm53.3833 0.84375q-3.546875 0 -5.421875 -1.953125q-1.859375 -1.96875 -1.859375 -5.515625l0 -52.640625q0 -3.546875 1.859375 -5.453125q1.875 -1.921875 5.421875 -1.921875q3.453125 0 5.3125 1.921875q1.875 1.90625 1.875 5.453125l0 22.125l0.1875 0l24.828125 -25.953125q1.578125 -1.671875 3.296875 -2.5625q1.734375 -0.890625 3.984375 -0.890625q3.265625 0 4.703125 1.6875q1.453125 1.671875 1.265625 3.921875q-0.1875 2.234375 -2.0625 4.1875l-24.90625 25.484375l0.09375 -6.25l26.125 27.90625q2.140625 2.328125 2.1875 4.765625q0.046875 2.421875 -1.59375 4.0625q-1.625 1.625 -4.796875 1.625q-2.703125 0 -4.34375 -1.125q-1.625 -1.125 -3.578125 -3.265625l-25.203125 -26.5l-0.1875 0l0 23.421875q0 3.546875 -1.828125 5.515625q-1.8125 1.953125 -5.359375 1.953125zm78.201294 0q-3.546875 0 -5.40625 -1.953125q-1.859375 -1.96875 -1.859375 -5.609375l0 -27.0625l2.984375 8.296875l-22.03125 -31.265625q-1.3125 -1.953125 -1.125 -4.234375q0.1875 -2.296875 1.859375 -3.96875q1.6875 -1.6875 4.765625 -1.6875q2.25 0 4.0625 1.125q1.828125 1.125 3.5 3.546875l14.9375 21.5625l-2.984375 0l14.9375 -21.5625q1.765625 -2.515625 3.484375 -3.59375q1.734375 -1.078125 4.0625 -1.078125q2.984375 0 4.671875 1.546875q1.6875 1.53125 1.765625 3.828125q0.09375 2.28125 -1.578125 4.703125l-21.75 31.078125l2.890625 -8.296875l0 27.0625q0 7.5625 -7.1875 7.5625z" fill-rule="nonzero"/></g></svg>